<svg width="56" height="56" viewBox="0 0 56 56" fill="none" xmlns="http://www.w3.org/2000/svg">
<path fill-rule="evenodd" clip-rule="evenodd" d="M24.9351 0.137935C19.9104 0.662384 14.1128 3.12393 10.0354 6.46408C8.82739 7.45367 6.58573 9.75481 5.69517 10.9195C3.10655 14.3048 1.30565 18.2529 0.381325 22.5692C0.0305539 24.2069 0.00300672 24.5838 4.00688e-05 27.7939C-0.00448055 32.6113 0.371861 34.6884 1.9699 38.667C6.9519 51.07 20.1422 58.0633 33.6427 55.4591C37.6493 54.6862 42.2667 52.4878 45.694 49.7209C47.0734 48.6075 49.2144 46.3874 50.3436 44.9001C56.6452 36.599 57.7749 25.4147 53.2624 16.003C51.505 12.3378 49.344 9.50458 46.355 6.94758C42.5471 3.68976 38.2227 1.55595 33.5448 0.6268C30.4328 0.00858831 27.6741 -0.148012 24.9351 0.137935ZM32.9552 3.77293C40.5861 5.47308 47.056 10.5562 50.2806 17.385C51.1401 19.205 52.101 21.8585 52.0294 22.2134C51.9914 22.4013 51.5859 22.1593 50.2035 21.1235C44.564 16.898 38.5752 14.3774 31.4721 13.24C29.8199 12.9754 29.2029 12.9409 27.4703 13.0167C19.5307 13.364 12.5787 15.9183 5.12204 21.2277C4.52009 21.6563 3.99626 21.9396 3.94852 21.8625C3.81685 21.6495 4.81096 18.8618 5.59119 17.2557C8.95934 10.3227 15.6727 5.19419 23.213 3.79425C25.4459 3.37966 25.3322 3.38729 28.6004 3.43502C31.0396 3.4706 31.8972 3.53711 32.9552 3.77293ZM31.0116 16.5623C33.1223 16.7479 36.4428 19.0115 38.068 21.3726C39.6258 23.6359 40.4223 26.9169 40.0551 29.559C39.3914 34.3357 35.8699 38.2448 31.0726 39.5302C29.3493 39.9919 26.8436 39.9583 25.1393 39.4507C21.8291 38.4648 19.1778 36.2623 17.6511 33.2305C16.765 31.471 16.451 30.1241 16.4523 28.089C16.4544 24.5015 17.5889 21.9367 20.3033 19.3833C22.1884 17.61 23.9974 16.6802 25.9159 16.4989C26.9169 16.4043 29.593 16.4375 31.0116 16.5623ZM14.9559 20.8394C13.5557 23.5892 13.336 24.4638 13.245 27.6527C13.1911 29.5436 13.2248 30.3598 13.3887 31.1288C13.6736 32.4658 14.6215 34.8611 15.3314 36.0377C15.6467 36.5602 15.8846 37.0475 15.8601 37.1206C15.7528 37.4409 11.8063 35.1178 9.27281 33.243C6.61073 31.2733 3.26647 28.3115 3.13438 27.8068C3.01572 27.3533 3.51256 26.7361 4.96721 25.5295C6.55889 24.2093 10.5314 21.524 12.4957 20.4402C13.531 19.869 15.7822 18.7857 15.9866 18.7602C16.003 18.7583 15.5392 19.6938 14.9559 20.8394ZM42.6676 20.2287C45.9604 21.9708 51.4733 25.9989 52.4269 27.3596C52.6453 27.6714 52.6245 27.7054 51.6803 28.5926C47.9876 32.0617 44.2173 34.9344 41.6286 36.2512L41.0242 36.5586L41.2252 36.0949C41.3358 35.8397 41.6893 35.0772 42.0107 34.4002C43.1362 32.0302 43.6075 29.1124 43.3091 26.3625C43.1098 24.5256 42.7006 23.1549 41.7387 21.1008C41.3501 20.271 41.0321 19.563 41.0321 19.5274C41.0321 19.3875 41.272 19.4903 42.6676 20.2287ZM26.3658 20.1725C23.8771 20.8241 22.0825 22.2813 20.8997 24.6107C20.4026 25.5897 20.3753 25.7172 20.3057 27.3861C20.2629 28.4148 20.2979 29.4818 20.391 29.9762C20.7323 31.7907 22.5516 34.1703 24.3077 35.0995C25.5694 35.767 26.7389 36.0319 28.3885 36.024C31.6227 36.0086 34.0723 34.4537 35.5558 31.4748L36.1583 30.2651V27.9351V25.6052L35.7149 24.7577C34.4009 22.2465 32.65 20.8247 30.0551 20.1613C28.7197 19.8199 27.7004 19.823 26.3658 20.1725ZM29.7389 23.4261C30.4354 23.6033 31.4761 24.32 32.0032 24.9853C33.0366 26.2893 33.3102 28.2194 32.6916 29.8405C32.207 31.1103 31.069 32.1933 29.811 32.5817C28.6064 32.9537 28.0284 32.9534 26.8201 32.5803C25.9916 32.3245 25.7271 32.1525 24.9204 31.3447C23.8169 30.2399 23.4499 29.3853 23.4562 27.9351C23.4656 25.8003 25.1422 23.8015 27.325 23.3228C28.1016 23.1525 28.7784 23.1815 29.7389 23.4261ZM52.0767 33.5975C52.0113 34.2959 51.0083 37.2394 50.3805 38.5755C48.6937 42.1651 45.671 45.7473 42.2922 48.1606C39.7744 49.959 36.1628 51.5588 33.0885 52.2376C31.2311 52.6476 25.714 52.7787 23.8679 52.4566C16.2915 51.1349 9.52978 46.2657 6.07829 39.6464C4.94884 37.4803 3.61003 33.8937 3.76133 33.4399C3.7927 33.3458 4.36243 33.6962 5.08347 34.2529C11.0463 38.8565 16.5208 41.6339 21.537 42.6004C25.9933 43.4589 31.0383 43.3801 35.0988 42.3884C39.9383 41.2063 45.7864 38.0409 50.7475 33.9179C51.3442 33.4221 51.8974 33.0391 51.9771 33.0668C52.0566 33.0945 52.1016 33.3334 52.0767 33.5975Z" fill="#F3F3F3"/>
</svg>
