<svg width="80" height="80" viewBox="0 0 80 80" fill="none" xmlns="http://www.w3.org/2000/svg">
<path fill-rule="evenodd" clip-rule="evenodd" d="M35.6215 0.19705C28.4434 0.946263 20.1612 4.46276 14.3363 9.2344C12.6106 10.6481 9.40819 13.9354 8.13595 15.5993C4.43793 20.4355 1.86521 26.0755 0.544751 32.2417C0.0436484 34.5813 0.00429532 35.1198 5.72412e-05 39.7056C-0.00640078 46.5875 0.53123 49.5549 2.81414 55.2386C9.93129 72.9572 28.7746 82.9475 48.0611 79.2273C53.7847 78.1232 60.381 74.9825 65.2772 71.0299C67.2477 69.4393 70.3063 66.2678 71.9194 64.143C80.9217 52.2843 82.5356 36.3067 76.0891 22.8614C73.5785 17.6254 70.4914 13.578 66.2214 9.92511C60.7816 5.27108 54.6039 2.22279 47.9212 0.895428C43.4755 0.012269 39.5345 -0.211446 35.6215 0.19705ZM47.0788 5.3899C57.9802 7.81868 67.2228 15.0802 71.8294 24.8357C73.0573 27.4358 74.43 31.2264 74.3277 31.7334C74.2734 32.0019 73.6942 31.6561 71.7192 30.1764C63.6628 24.14 55.1074 20.5392 44.9602 18.9143C42.5998 18.5362 41.7185 18.487 39.2432 18.5953C27.9009 19.0914 17.9695 22.7404 7.3172 30.3253C6.45727 30.9376 5.70895 31.3422 5.64074 31.2321C5.45265 30.9279 6.87281 26.9454 7.98742 24.651C12.7991 14.7468 22.3896 7.42027 33.1614 5.42036C36.3513 4.82809 36.1888 4.83898 40.8577 4.90716C44.3423 4.958 45.5675 5.05301 47.0788 5.3899ZM44.3023 23.6605C47.3176 23.9255 52.0612 27.1592 54.3829 30.5323C56.6083 33.7656 57.7461 38.4527 57.2216 42.2272C56.2735 49.051 51.2427 54.6354 44.3895 56.4717C41.9276 57.1314 38.348 57.0833 35.9133 56.3581C31.1844 54.9497 27.3968 51.8033 25.2158 47.4721C23.95 44.9586 23.5014 43.0345 23.5032 40.1272C23.5063 35.0021 25.127 31.3382 29.0047 27.6904C31.6976 25.1571 34.2821 23.8289 37.0227 23.5699C38.4527 23.4347 42.2757 23.4821 44.3023 23.6605ZM21.3656 29.7706C19.3652 33.6988 19.0514 34.9483 18.9215 39.5039C18.8444 42.2052 18.8926 43.3712 19.1267 44.4698C19.5338 46.3797 20.8879 49.8016 21.902 51.4824C22.3525 52.2288 22.6923 52.925 22.6572 53.0294C22.504 53.487 16.8662 50.1684 13.2469 47.49C9.44391 44.6761 4.66638 40.4449 4.47769 39.724C4.30816 39.0762 5.01794 38.1945 7.09601 36.4707C9.36984 34.5848 15.0448 30.7485 17.851 29.2003C19.3299 28.3843 22.546 26.8367 22.8381 26.8003C22.8615 26.7975 22.1989 28.134 21.3656 29.7706ZM60.9537 28.8981C65.6578 31.3868 73.5333 37.1413 74.8956 39.0851C75.2076 39.5305 75.1779 39.5791 73.829 40.8466C68.5538 45.8024 63.1676 49.9063 59.4694 51.7874L58.606 52.2266L58.8932 51.5641C59.0512 51.1996 59.5561 50.1103 60.0153 49.1432C61.6231 45.7574 62.2964 41.5891 61.8701 37.6607C61.5854 35.0366 61.0009 33.0785 59.6268 30.144C59.0716 28.9586 58.6173 27.9472 58.6173 27.8963C58.6173 27.6964 58.96 27.8433 60.9537 28.8981ZM37.6655 28.8178C34.1101 29.7488 31.5465 31.8304 29.8567 35.1581C29.1465 36.5566 29.1076 36.7388 29.0081 39.123C28.9469 40.5926 28.997 42.1168 29.13 42.8231C29.6176 45.4153 32.2165 48.8148 34.7253 50.1421C36.5276 51.0957 38.1985 51.4741 40.555 51.4628C45.1753 51.4408 48.6748 49.2196 50.794 44.964L51.6548 43.2358V39.9073V36.5788L51.0213 35.3681C49.1442 31.7808 46.6429 29.7496 42.9358 28.8019C41.0281 28.3141 39.572 28.3185 37.6655 28.8178ZM42.4842 33.4658C43.4791 33.719 44.9659 34.7429 45.7188 35.6933C47.1951 37.5562 47.586 40.3134 46.7023 42.6292C46.01 44.4434 44.3842 45.9904 42.5871 46.5453C40.8662 47.0767 40.0406 47.0763 38.3145 46.5433C37.1309 46.1778 36.7531 45.9321 35.6005 44.7782C34.0242 43.1999 33.4998 41.9791 33.5089 39.9073C33.5222 36.8576 35.9174 34.0022 39.0358 33.3183C40.1451 33.0751 41.112 33.1164 42.4842 33.4658ZM74.3953 47.9964C74.3018 48.9941 72.869 53.1991 71.9721 55.1078C69.5625 60.2359 65.2443 65.3533 60.4175 68.8008C56.8206 71.37 51.6612 73.6554 47.2694 74.6251C44.6159 75.2109 36.7343 75.3981 34.097 74.938C23.2736 73.0498 13.614 66.0939 8.68327 56.6377C7.06978 53.5432 5.15719 48.4196 5.37333 47.7712C5.41814 47.6369 6.23205 48.1374 7.2621 48.9328C15.7804 55.5093 23.6011 59.477 30.7671 60.8576C37.1333 62.0841 44.3404 61.9716 50.1412 60.5549C57.0547 58.8662 65.4091 54.3441 72.4964 48.4541C73.3489 47.7458 74.1392 47.1987 74.253 47.2383C74.3666 47.2778 74.4308 47.6191 74.3953 47.9964Z" fill="#F3F3F3"/>
</svg>
