<svg width="113" height="1022" viewBox="0 0 113 1022" fill="none" xmlns="http://www.w3.org/2000/svg">
<path d="M30.468 463.627C30.468 402.627 68.4999 445.5 68.4999 409C68.4999 372.5 28.4999 403 28.4999 353C28.4999 303 68.4999 330.5 68.4999 288C68.4999 254 28.4999 261.5 28.4999 216C28.4999 170.5 68.4999 160.4 68.4999 118C68.4999 69.5 28.4999 52.4 28.4999 0M30.468 463.627C36.5141 460.227 44.4825 457.703 51.3852 457C54.2571 456.708 60.7361 456.878 63.8904 457.33C83.1223 460.082 98.3225 470.946 106.563 487.829C108.885 492.587 110.23 496.52 111.362 501.865C111.845 504.147 111.893 505.015 111.889 511.351C111.884 519.236 111.612 521.706 110.214 526.555C106.375 539.873 98.872 550.125 87.3055 557.859C81.8948 561.478 74.4079 564.536 67.8444 565.809M30.468 463.627C16.1788 471.661 6.40609 484.598 2.98755 500.003C2.10964 503.959 1.88916 506.194 1.88916 511.142C1.88916 520.119 2.99157 525.983 6.04825 533.266C16.1355 557.3 41.8649 570.849 67.8444 565.809M67.8444 565.809C71.9295 572.454 77.6486 588.196 67.8444 598C55.589 610.255 36.5942 601.5 36.5942 629.25C36.5942 657 67.8444 659.5 67.8444 689.5C67.8444 719.5 36.5942 706.5 36.5942 731C36.5942 755.5 67.8444 760 67.8444 787C67.8444 814 36.5942 809 36.5942 841C36.5942 873 67.8444 879.5 67.8444 909.5C67.8444 939.5 36.5942 922.5 36.5942 973C36.5942 1023.5 68 1000 68 1022M104.331 500.358C101.702 490.259 98.0199 484.004 90.4067 476.703C86.0984 472.571 80.8848 469.167 75.4447 466.935C70.296 464.821 66.8296 464.023 60.9765 463.603C53.4654 463.064 48.0097 463.649 41.9712 465.641C27.6631 470.361 16.8367 480.636 11.2576 494.788M104.331 500.358C105.417 504.527 105.623 506.15 105.067 506.15C104.894 506.15 103.308 505.518 101.543 504.745C91.5624 500.376 79.2237 497.1 68.1996 495.892C60.6755 495.067 49.0439 495.215 42.127 496.224C32.9686 497.56 25.2484 499.604 14.9144 503.429C7.69345 506.102 8.43519 505.98 8.6372 504.46C8.91807 502.347 10.3253 497.154 11.2576 494.788M104.331 500.358C103.888 498.86 102.202 495.063 99 491.861C94.9972 487.858 87.8408 491.861 75.4447 491.861C63.0487 491.861 65.7094 482.126 55.589 472.005C45.4686 461.885 41.0942 486.5 36.5942 491C32.9942 494.6 18.2031 495.025 11.2576 494.788M103.331 527.19C104.444 523.819 105.42 519.343 105.334 518.008C105.285 517.256 105.151 516.891 104.907 516.85C104.712 516.817 103.646 517.17 102.539 517.635C86.0584 524.549 72.5695 527.415 56.4769 527.42C41.9764 527.425 28.5675 524.768 14.0339 519.01C11.8786 518.156 9.75642 517.399 9.31759 517.328L8.5202 517.199V518.189C8.5202 519.594 9.5402 523.927 10.6608 527.284C17.6658 548.266 38.3111 561.997 60.312 560.306M103.331 527.19C102.254 530.451 99.8467 535.402 97.8868 538.388C89.4393 551.259 75.9946 559.101 60.312 560.306M103.331 527.19C97.3605 531.164 84.8686 537.942 82.6624 533.266C79.9046 527.42 67.5284 526.734 65.7094 530C63.8904 533.266 31 539.112 29 533.266C29.5 531.164 29.3 527.005 24.5 527.19C18.5 527.42 24.2906 551 45 553.5C61.5675 555.5 62.1111 558.871 60.312 560.306M64.0552 501.909C68.578 502.291 74.7009 503.127 75.0009 503.403C75.2273 503.612 75.215 503.988 74.9438 505.149C74.1825 508.406 72.2997 510.822 69.4292 512.224C68.2292 512.81 67.8207 512.883 65.7094 512.885C63.5067 512.887 63.2251 512.832 61.7628 512.114C59.7692 511.135 57.9194 509.483 57.1745 508.016C56.5761 506.837 56.1344 504.521 56.1264 502.519L56.1216 501.37L58.7859 501.529C60.2513 501.617 62.6224 501.788 64.0552 501.909ZM49.1586 502.075C49.3016 502.171 49.483 503.1 49.5616 504.14C49.9057 508.688 52.3981 513.616 55.589 516.056C56.3379 516.629 57.7157 517.453 58.6511 517.888C66.7161 521.636 76.1661 518.361 79.9046 510.523C80.3387 509.613 80.8168 508.336 80.967 507.686C81.4837 505.45 81.6514 505.204 82.6624 505.204C83.6596 505.204 87.1909 506.232 88.0335 506.767C88.7641 507.232 88.722 508.099 87.8408 510.725C87.0299 513.141 85.1033 516.961 84.5473 517.255C83.8624 517.618 74.4711 519.603 71.1599 520.085C66.2193 520.805 62.3958 521.043 55.7768 521.043H49.8172L48.4306 519.447C45.0116 515.512 43.0277 511.301 42.3845 506.612C42.2379 505.544 42.1874 504.259 42.2722 503.758C42.4105 502.941 42.5228 502.822 43.3649 502.595C44.1718 502.378 46.9035 502.019 48.4249 501.929C48.6854 501.914 49.0155 501.98 49.1586 502.075ZM35.2447 504.231C35.4323 504.35 35.6478 505.186 35.7691 506.264C35.8823 507.271 36.2536 509.174 36.5942 510.491C37.1732 512.731 37.5322 513.736 39.203 517.792C39.5646 518.67 39.7948 519.453 39.715 519.533C39.5 519.747 36.8371 519.252 32.4957 518.19C25.2392 516.415 13.2567 512.173 13.2567 511.379C13.2567 510.585 27.9383 505.414 33.1498 504.374C33.9964 504.205 34.7424 504.058 34.8076 504.048C34.8727 504.038 35.0692 504.12 35.2447 504.231ZM98.134 510.31C99.2542 510.779 100.171 511.24 100.171 511.335C100.171 511.536 95.6332 513.601 94.6646 513.841C94.1291 513.973 94.014 513.924 94.0169 513.563C94.0202 513.14 94.6198 510.364 94.8393 509.755C95.0193 509.255 96.0081 509.422 98.134 510.31Z" stroke="#8C8C8C" stroke-width="2"/>
</svg>
