<svg width="328" height="328" viewBox="0 0 328 328" fill="none">
<path fill-rule="evenodd" clip-rule="evenodd" d="M146.048 0.807906C116.618 3.87968 82.6609 18.2973 58.7787 37.861C51.7033 43.6572 38.5736 57.1353 33.3574 63.957C18.1955 83.7854 7.64738 106.91 2.23348 132.191C0.178958 141.784 0.0176108 143.991 0.000234689 162.793C-0.0262432 191.009 2.17804 203.175 11.538 226.478C40.7183 299.125 117.976 340.085 197.05 324.832C220.517 320.305 247.562 307.428 267.636 291.223C275.715 284.701 288.256 271.698 294.87 262.986C331.779 214.365 338.396 148.858 311.965 93.7319C301.672 72.2642 289.015 55.6697 271.508 40.693C249.204 21.6114 223.876 9.11343 196.477 3.67125C178.249 0.050303 162.091 -0.866929 146.048 0.807906ZM193.023 22.0986C237.719 32.0566 275.614 61.829 294.501 101.826C299.535 112.487 305.163 128.028 304.743 130.107C304.521 131.208 302.146 129.79 294.049 123.723C261.018 98.9739 225.94 84.2105 184.337 77.5484C174.659 75.9985 171.046 75.7967 160.897 76.2408C114.394 78.2746 73.675 93.2356 30.0005 124.334C26.4748 126.844 23.4067 128.503 23.127 128.052C22.3559 126.804 28.1785 110.476 32.7484 101.069C52.4761 60.4618 91.7974 30.4231 135.962 22.2235C149.04 19.7952 148.374 19.8398 167.517 20.1194C181.803 20.3278 186.827 20.7174 193.023 22.0986ZM181.639 97.0079C194.002 98.0947 213.451 111.353 222.97 125.182C232.094 138.439 236.759 157.656 234.608 173.131C230.721 201.109 210.095 224.005 181.997 231.534C171.903 234.239 157.227 234.042 147.245 231.068C127.856 225.294 112.327 212.394 103.385 194.635C98.1952 184.33 96.3558 176.441 96.3632 164.522C96.3756 143.509 103.021 128.487 118.919 113.53C129.96 103.144 140.556 97.6985 151.793 96.6366C157.656 96.0824 173.33 96.2768 181.639 97.0079ZM87.599 122.059C79.3975 138.165 78.1109 143.288 77.578 161.966C77.2619 173.041 77.4597 177.822 78.4195 182.326C80.0884 190.157 85.6405 204.187 89.7984 211.078C91.6452 214.138 93.0386 216.992 92.8946 217.421C92.2666 219.297 69.1514 205.69 54.3122 194.709C38.72 183.172 19.1322 165.824 18.3585 162.868C17.6635 160.212 20.5736 156.597 29.0936 149.53C38.4164 141.798 61.6838 126.069 73.1893 119.721C79.2527 116.376 92.4387 110.03 93.636 109.881C93.732 109.87 91.0155 115.349 87.599 122.059ZM249.91 118.482C269.197 128.686 301.487 152.279 307.072 160.249C308.351 162.075 308.229 162.274 302.699 167.471C281.071 187.79 258.987 204.616 243.824 212.328L240.285 214.129L241.462 211.413C242.11 209.918 244.18 205.452 246.063 201.487C252.655 187.605 255.415 170.515 253.668 154.409C252.5 143.65 250.104 135.622 244.47 123.59C242.194 118.73 240.331 114.583 240.331 114.375C240.331 113.555 241.736 114.157 249.91 118.482ZM154.428 118.153C139.852 121.97 129.341 130.505 122.413 144.148C119.501 149.882 119.341 150.629 118.933 160.404C118.682 166.43 118.888 172.679 119.433 175.575C121.432 186.203 132.088 200.141 142.374 205.583C149.763 209.492 156.614 211.044 166.276 210.998C185.219 210.907 199.567 201.8 208.255 184.352L211.785 177.267V163.62V149.973L209.187 145.009C201.491 130.301 191.236 121.973 176.037 118.088C168.215 116.088 162.245 116.106 154.428 118.153ZM174.185 137.21C178.264 138.248 184.36 142.446 187.447 146.342C193.5 153.98 195.103 165.285 191.479 174.78C188.641 182.218 181.975 188.561 174.607 190.836C167.552 193.014 164.166 193.013 157.089 190.828C152.237 189.329 150.688 188.322 145.962 183.591C139.499 177.12 137.349 172.114 137.387 163.62C137.441 151.116 147.261 139.409 160.047 136.605C164.595 135.608 168.559 135.777 174.185 137.21ZM305.021 196.785C304.638 200.876 298.763 218.116 295.086 225.942C285.206 246.967 267.501 267.949 247.712 282.083C232.964 292.617 211.811 301.987 193.804 305.963C182.925 308.365 150.611 309.132 139.798 307.246C95.4216 299.504 55.8173 270.985 35.6014 232.215C28.9861 219.527 21.1445 198.52 22.0307 195.862C22.2144 195.311 25.5514 197.363 29.7746 200.624C64.6998 227.588 96.7645 243.856 126.145 249.516C152.246 254.545 181.796 254.083 205.579 248.275C233.924 241.351 268.177 222.811 297.235 198.662C300.73 195.758 303.971 193.515 304.437 193.677C304.903 193.839 305.166 195.238 305.021 196.785Z" fill="#F3F3F3"/>
</svg>
