<svg width="328" height="328" viewBox="0 0 328 328" fill="none">
<path fill-rule="evenodd" clip-rule="evenodd" d="M136.032 1.38393C114.042 5.4084 89.546 15.6271 70.472 28.7352C35.9712 52.4445 11.7371 89.2842 2.6799 131.788C-0.646206 147.4 -0.918341 175.647 2.09958 192.083C6.39677 215.485 17.4753 241.458 31.4845 260.974C40.8662 274.045 59.6552 291.961 73.569 301.105C91.9568 313.189 109.357 320.335 132.423 325.273C149.411 328.912 179.928 328.908 196.779 325.267C227.933 318.537 254.909 304.106 277.756 281.947C303.138 257.33 319.028 228.522 325.815 194.812C328.958 179.205 328.663 146.54 325.234 130.622C318.096 97.4766 304.209 71.9195 280.311 47.9488C256.61 24.1753 230.493 9.91231 197.089 2.49912C184.755 -0.238687 148.516 -0.900101 136.032 1.38393ZM199.645 22.7428C225.813 29.7664 249.76 43.9418 269.463 64.0723C277.73 72.5191 292.259 92.3451 291.062 93.5466C290.781 93.8289 285.434 89.3413 279.181 83.5741C250.209 56.8575 223.29 42.339 192.437 36.7888C180.274 34.6004 152.612 34.9037 138.94 37.3732C107.562 43.0424 78.3047 58.0776 48.0464 84.0815C42.2292 89.0812 38.2425 91.8575 39.0287 90.362C45.7065 77.6716 62.5115 58.816 76.7207 48.0724C94.634 34.5281 115.443 25.0571 136.032 21.0793C148.847 18.604 188.044 19.6282 199.645 22.7428ZM150.57 56.0187C150.57 56.2485 147.394 58.4019 143.513 60.8049C134.702 66.2595 122.185 78.8334 115.839 88.6041C97.9043 116.214 97.7996 155.843 115.59 183.037C122.157 193.077 136.781 207.391 146.513 213.308C158.626 220.671 175.185 224.746 193 224.746C236.265 224.746 275.167 188.879 279.039 145.423C279.782 137.068 278.384 115.938 276.76 111.01C274.393 103.825 299.188 138.009 305.528 150.672C311.249 162.098 310.725 166.327 301.762 181.14C272.117 230.136 233.534 260.395 190.193 268.639C177.194 271.111 154.156 271.044 141.847 268.498C96.7983 259.179 56.5721 230.318 26.0034 185.383L19.1534 175.315V162.657V149.999L26.1324 139.588C54.3834 97.4451 90.1112 70.3388 132.961 58.5396C141.868 56.0864 150.57 54.8406 150.57 56.0187ZM206.525 68.4316C230.429 72.8772 254.965 98.1159 258.692 122.092C262.832 148.711 257.288 166.829 239.591 184.526C228.651 195.468 217.94 201.376 203.825 204.253C192.061 206.652 186.531 206.56 175.7 203.781C143.668 195.564 121.578 168.11 121.513 136.439C121.488 124.813 123.251 117.32 128.731 105.761C136.896 88.5364 155.911 72.6614 173.25 68.5914C179.597 67.1018 198.877 67.0096 206.525 68.4316ZM170.58 92.8421C161.284 97.3331 152.982 105.843 148.023 115.962C144.403 123.35 144.173 124.553 144.183 136.079C144.191 147.438 144.465 148.919 147.915 156.242C152.223 165.389 159.962 173.52 169.255 178.668C175.374 182.057 176.053 182.167 190.692 182.144C204.207 182.125 206.403 181.829 211.39 179.366C219.147 175.534 229.85 164.608 233.566 156.728C244.667 133.193 234.367 104.086 211.044 93.0859C205.554 90.4962 202.753 90.0144 191.274 89.6866C178.393 89.3203 177.63 89.437 170.58 92.8421ZM200.718 109.894C211.475 113.7 218.338 123.867 218.402 136.087C218.447 144.789 215.943 150.728 209.693 156.737C194.299 171.537 168.054 162.821 163.255 141.315C158.627 120.568 180.066 102.585 200.718 109.894ZM291.303 233.786C274.467 265.23 243.534 290.292 205.811 303.051L194.181 306.985H163.944H133.706L121.309 302.678C88.0876 291.136 61.5136 271.109 43.0689 243.712C38.6461 237.141 35.3293 231.461 35.6991 231.09C36.0701 230.719 39.9556 233.689 44.3353 237.691C71.8664 262.85 105.652 280.963 136.614 287.164C149.776 289.801 171.667 290.631 184.688 288.988C222.552 284.207 252.703 267.978 285.449 234.75C290.872 229.247 295.496 224.746 295.726 224.746C295.955 224.746 293.966 228.814 291.303 233.786Z" fill="#F3F3F3"/>
</svg>
